<?xml version="1.0" encoding="UTF-8"?><svg xmlns="http://www.w3.org/2000/svg" viewBox="0 0 300 450"><defs><linearGradient id="cyberpunkGradient" x1="0%" y1="0%" x2="100%" y2="100%"><stop offset="0%" style="stop-color:#0f1b3f"/><stop offset="100%" style="stop-color:#1a0f3f"/></linearGradient><pattern id="grid" x="0" y="0" width="30" height="30" patternUnits="userSpaceOnUse"><path d="M 30 0 L 0 0 0 30" fill="none" stroke="#2a2f71" stroke-width="0.5" opacity="0.3"/></pattern><filter id="neonGlow"><feGaussianBlur stdDeviation="2" result="coloredBlur"/><feMerge><feMergeNode in="coloredBlur"/><feMergeNode in="SourceGraphic"/></feMerge></filter></defs><rect width="300" height="450" fill="url(#cyberpunkGradient)"/><rect width="300" height="450" fill="url(#grid)"/><path d="M150 80 L190 100 L190 140 L150 160 L110 140 L110 100 Z" fill="none" stroke="#00fff2" stroke-width="2" filter="url(#neonGlow)"/><g transform="translate(150, 120) scale(0.6)" filter="url(#neonGlow)"><path d="M0,-30 C30,-30 40,-10 40,10 C40,35 20,40 0,50 C-20,40 -40,35 -40,10 C-40,-10 -30,-30 0,-30" fill="none" stroke="#ff00ea" stroke-width="3"/><path d="M-20,0 L-10,0 L-10,15 L-20,15 Z" fill="#00fff2" stroke="#00fff2" stroke-width="1"/><path d="M20,0 L10,0 L10,15 L20,15 Z" fill="#00fff2" stroke="#00fff2" stroke-width="1"/><path d="M0,15 L5,30 L-5,30 Z" fill="none" stroke="#ff00ea" stroke-width="2"/><path d="M-20,35 C-10,45 10,45 20,35" fill="none" stroke="#ff00ea" stroke-width="2"/><path d="M-15,-20 L-10,-15 M15,-20 L10,-15" stroke="#00fff2" stroke-width="1"/></g><g stroke="#ff00ea" stroke-width="1" opacity="0.7"><line x1="50" y1="200" x2="250" y2="200" filter="url(#neonGlow)"/><line x1="70" y1="210" x2="230" y2="210"/><line x1="90" y1="220" x2="210" y2="220"/></g><g fill="none" stroke="#00fff2" stroke-width="1" filter="url(#neonGlow)"><rect x="60" y="280" width="180" height="20"/><rect x="80" y="320" width="140" height="15"/><rect x="100" y="350" width="100" height="15"/></g><g fill="#00fff2" font-family="monospace" font-size="10" opacity="0.3"><text x="50" y="250">01</text><text x="230" y="180">10</text><text x="160" y="290">11</text><text x="90" y="150">00</text></g><text x="150" y="250" font-family="'Courier New', monospace" font-size="14" fill="#00fff2" text-anchor="middle" filter="url(#neonGlow)">NO_SIGNAL//</text><path d="M10 10 L30 10 L30 30" fill="none" stroke="#ff00ea" stroke-width="2"/><path d="M270 10 L290 10 L290 30" fill="none" stroke="#ff00ea" stroke-width="2"/><path d="M10 420 L30 420 L30 440" fill="none" stroke="#ff00ea" stroke-width="2"/><path d="M270 420 L290 420 L290 440" fill="none" stroke="#ff00ea" stroke-width="2"/></svg>